SplineFontDB: 3.0
FontName: Block3x6
FullName: Block3x6
FamilyName: Block3x6
Weight: Book
Copyright: 
Version: 
ItalicAngle: 0
UnderlinePosition: 0
UnderlineWidth: 0
Ascent: 819
Descent: 205
sfntRevision: 0x00010000
LayerCount: 2
Layer: 0 1 "Back"  1
Layer: 1 1 "Fore"  0
HasVMetrics: 1
XUID: [1021 722 912653689 6842092]
FSType: 8
OS2Version: 1
OS2_WeightWidthSlopeOnly: 0
OS2_UseTypoMetrics: 1
CreationTime: 1505014962
ModificationTime: 1596674022
PfmFamily: 17
TTFWeight: 400
TTFWidth: 5
LineGap: 92
VLineGap: 92
Panose: 2 0 5 3 0 0 0 0 0 0
OS2TypoAscent: 819
OS2TypoAOffset: 0
OS2TypoDescent: -205
OS2TypoDOffset: 0
OS2TypoLinegap: 92
OS2WinAscent: 1024
OS2WinAOffset: 0
OS2WinDescent: 0
OS2WinDOffset: 0
HheadAscent: 1024
HheadAOffset: 0
HheadDescent: 0
HheadDOffset: 0
OS2SubXSize: 665
OS2SubYSize: 716
OS2SubXOff: 0
OS2SubYOff: 143
OS2SupXSize: 665
OS2SupYSize: 716
OS2SupXOff: 0
OS2SupYOff: 491
OS2StrikeYSize: 51
OS2StrikeYPos: 265
OS2Vendor: 'PfEd'
OS2CodePages: 00000001.00000000
OS2UnicodeRanges: 00000001.00000000.00000000.00000000
MarkAttachClasses: 1
DEI: 91125
ShortTable: maxp 16
  1
  0
  94
  20
  3
  0
  0
  2
  0
  1
  1
  0
  64
  0
  0
  0
EndShort
LangName: 1033 "" "" "Regular" 
GaspTable: 1 65535 2 0
Encoding: Custom
UnicodeInterp: none
NameList: Adobe Glyph List
DisplaySize: -24
AntiAlias: 1
FitToEm: 1
WinInfo: 16 16 8
BeginPrivate: 0
EndPrivate
BeginChars: 65538 96

StartChar: .notdef
Encoding: 0 -1 0
AltUni2: 000000.ffffffff.0
Width: 1024
VWidth: 90
Flags: W
LayerCount: 2
Fore
SplineSet
0 0 m 1,0,-1
 0 1024 l 1,1,-1
 1000 1024 l 1,2,-1
 1000 0 l 1,3,-1
 0 0 l 1,0,-1
EndSplineSet
EndChar

StartChar: A
Encoding: 65 65 3
Width: 460
VWidth: 90
Flags: W
LayerCount: 2
Fore
SplineSet
0 720 m 1,0,-1
 360 720 l 1,1,-1
 360 0 l 1,2,-1
 240 0 l 1,3,-1
 240 360 l 1,4,-1
 120 360 l 1,5,-1
 120 0 l 1,6,-1
 0 0 l 1,7,-1
 0 720 l 1,0,-1
120 600 m 1,8,-1
 120 480 l 1,9,-1
 240 480 l 1,10,-1
 240 600 l 1,11,-1
 120 600 l 1,8,-1
EndSplineSet
EndChar

StartChar: B
Encoding: 66 66 4
Width: 460
VWidth: 90
Flags: W
LayerCount: 2
Fore
SplineSet
0 720 m 1,0,-1
 360 720 l 1,1,-1
 360 0 l 1,2,-1
 0 0 l 1,3,-1
 0 720 l 1,0,-1
120 591 m 1,4,-1
 120 471 l 1,5,-1
 240 471 l 1,6,-1
 240 591 l 1,7,-1
 120 591 l 1,4,-1
120 360 m 1,8,-1
 120 120 l 1,9,-1
 240 120 l 1,10,-1
 240 360 l 1,11,-1
 120 360 l 1,8,-1
EndSplineSet
EndChar

StartChar: C
Encoding: 67 67 5
Width: 460
VWidth: 90
Flags: W
LayerCount: 2
Fore
SplineSet
0 720 m 1,0,-1
 360 720 l 1,1,-1
 360 600 l 1,2,-1
 120 600 l 1,3,-1
 120 120 l 1,4,-1
 360 120 l 1,5,-1
 360 0 l 1,6,-1
 0 0 l 1,7,-1
 0 720 l 1,0,-1
EndSplineSet
EndChar

StartChar: D
Encoding: 68 68 6
Width: 460
VWidth: 90
Flags: W
LayerCount: 2
Fore
SplineSet
0 720 m 5,0,-1
 240 720 l 5,1,-1
 240 600 l 5,2,-1
 120 600 l 5,3,-1
 120 120 l 1,4,-1
 240 120 l 1,5,-1
 240 0 l 1,6,-1
 0 0 l 1,7,-1
 0 720 l 5,0,-1
240 600 m 5,8,-1
 360 600 l 5,9,-1
 360 120 l 1,10,-1
 240 120 l 1,11,-1
 240 600 l 5,8,-1
EndSplineSet
EndChar

StartChar: E
Encoding: 69 69 7
Width: 460
VWidth: 90
Flags: W
LayerCount: 2
Fore
SplineSet
0 720 m 5,0,-1
 360 720 l 5,1,-1
 360 600 l 5,2,-1
 120 600 l 5,3,-1
 120 480 l 5,4,-1
 360 480 l 5,5,-1
 360 360 l 5,6,-1
 120 360 l 5,7,-1
 120 120 l 1,8,-1
 360 120 l 1,9,-1
 360 0 l 1,10,-1
 0 0 l 1,11,-1
 0 720 l 5,0,-1
EndSplineSet
EndChar

StartChar: F
Encoding: 70 70 8
Width: 460
VWidth: 90
Flags: W
LayerCount: 2
Fore
SplineSet
0 720 m 5,0,-1
 360 720 l 5,1,-1
 360 600 l 5,2,-1
 120 600 l 5,3,-1
 120 480 l 5,4,-1
 360 480 l 5,5,-1
 360 360 l 5,6,-1
 120 360 l 5,7,-1
 120 0 l 1,8,-1
 0 0 l 1,9,-1
 0 720 l 5,0,-1
EndSplineSet
EndChar

StartChar: G
Encoding: 71 71 9
Width: 460
VWidth: 90
Flags: W
LayerCount: 2
Fore
SplineSet
0 720 m 1,0,-1
 360 720 l 1,1,-1
 360 600 l 1,2,-1
 120 600 l 1,3,-1
 120 120 l 1,4,-1
 240 120 l 1,5,-1
 240 480 l 1,6,-1
 360 480 l 1,7,-1
 360 0 l 1,8,-1
 0 0 l 1,9,-1
 0 720 l 1,0,-1
EndSplineSet
EndChar

StartChar: H
Encoding: 72 72 10
Width: 460
VWidth: 90
Flags: W
LayerCount: 2
Fore
SplineSet
0 720 m 5,0,-1
 120 720 l 5,1,-1
 120 480 l 5,2,-1
 240 480 l 5,3,-1
 240 720 l 5,4,-1
 360 720 l 5,5,-1
 360 0 l 1,6,-1
 240 0 l 1,7,-1
 240 360 l 5,8,-1
 120 360 l 5,9,-1
 120 0 l 1,10,-1
 0 0 l 1,11,-1
 0 720 l 5,0,-1
EndSplineSet
EndChar

StartChar: I
Encoding: 73 73 11
Width: 460
VWidth: 90
Flags: W
LayerCount: 2
Fore
SplineSet
0 720 m 5,0,-1
 360 720 l 5,1,-1
 360 600 l 5,2,-1
 240 600 l 5,3,-1
 240 120 l 1,4,-1
 360 120 l 1,5,-1
 360 0 l 1,6,-1
 0 0 l 1,7,-1
 0 120 l 1,8,-1
 120 120 l 1,9,-1
 120 600 l 5,10,-1
 0 600 l 5,11,-1
 0 720 l 5,0,-1
EndSplineSet
EndChar

StartChar: J
Encoding: 74 74 12
Width: 460
VWidth: 90
Flags: W
LayerCount: 2
Fore
SplineSet
0 480 m 1,0,-1
 120 480 l 1,1,-1
 120 120 l 1,2,-1
 240 120 l 1,3,-1
 240 720 l 1,4,-1
 360 720 l 1,5,-1
 360 0 l 1,6,-1
 0 0 l 1,7,-1
 0 480 l 1,0,-1
EndSplineSet
EndChar

StartChar: K
Encoding: 75 75 13
Width: 460
VWidth: 90
Flags: W
LayerCount: 2
Fore
SplineSet
0 720 m 1,0,-1
 120 720 l 1,1,-1
 120 600 l 1,2,-1
 240 600 l 1,3,-1
 240 720 l 1,4,-1
 360 720 l 1,5,-1
 360 600 l 1,6,-1
 240 600 l 1,7,-1
 240 360 l 1,8,-1
 360 360 l 1,9,-1
 360 0 l 1,10,-1
 240 0 l 1,11,-1
 240 360 l 1,12,-1
 120 360 l 1,13,-1
 120 0 l 1,14,-1
 0 0 l 1,15,-1
 0 720 l 1,0,-1
EndSplineSet
EndChar

StartChar: L
Encoding: 76 76 14
Width: 463
VWidth: 90
Flags: W
LayerCount: 2
Fore
SplineSet
0 720 m 5,0,-1
 120 720 l 5,1,-1
 120 120 l 1,2,-1
 360 120 l 1,3,-1
 360 0 l 1,4,-1
 0 0 l 1,5,-1
 0 720 l 5,0,-1
EndSplineSet
EndChar

StartChar: M
Encoding: 77 77 15
Width: 460
VWidth: 90
Flags: W
LayerCount: 2
Fore
SplineSet
0 720 m 5,0,-1
 120 720 l 5,1,-1
 120 600 l 5,2,-1
 240 600 l 5,3,-1
 240 720 l 5,4,-1
 360 720 l 5,5,-1
 360 0 l 1,6,-1
 240 0 l 1,7,-1
 240 480 l 5,8,-1
 120 480 l 5,9,-1
 120 0 l 1,10,-1
 0 0 l 1,11,-1
 0 720 l 5,0,-1
EndSplineSet
EndChar

StartChar: N
Encoding: 78 78 16
Width: 460
VWidth: 90
Flags: W
LayerCount: 2
Fore
SplineSet
0 720 m 5,0,-1
 360 720 l 5,1,-1
 360 0 l 1,2,-1
 240 0 l 1,3,-1
 240 600 l 5,4,-1
 120 600 l 5,5,-1
 120 0 l 1,6,-1
 0 0 l 1,7,-1
 0 720 l 5,0,-1
EndSplineSet
EndChar

StartChar: O
Encoding: 79 79 17
Width: 460
VWidth: 90
Flags: W
LayerCount: 2
Fore
SplineSet
0 720 m 5,0,-1
 360 720 l 5,1,-1
 360 0 l 1,2,-1
 0 0 l 1,3,-1
 0 720 l 5,0,-1
120 600 m 5,4,-1
 120 120 l 1,5,-1
 240 120 l 1,6,-1
 240 600 l 5,7,-1
 120 600 l 5,4,-1
EndSplineSet
EndChar

StartChar: P
Encoding: 80 80 18
Width: 460
VWidth: 90
Flags: W
LayerCount: 2
Fore
SplineSet
0 720 m 5,0,-1
 360 720 l 5,1,-1
 360 360 l 5,2,-1
 120 360 l 5,3,-1
 120 0 l 1,4,-1
 0 0 l 1,5,-1
 0 720 l 5,0,-1
120 600 m 5,6,-1
 120 480 l 5,7,-1
 240 480 l 5,8,-1
 240 600 l 5,9,-1
 120 600 l 5,6,-1
EndSplineSet
EndChar

StartChar: Q
Encoding: 81 81 19
Width: 460
VWidth: 90
Flags: W
LayerCount: 2
Fore
SplineSet
0 720 m 5,0,-1
 360 720 l 5,1,-1
 360 120 l 1,2,-1
 240 120 l 1,3,-1
 240 0 l 1,4,-1
 120 0 l 1,5,-1
 120 120 l 1,6,-1
 0 120 l 1,7,-1
 0 720 l 5,0,-1
120 600 m 5,8,-1
 120 240 l 1,9,-1
 240 240 l 1,10,-1
 240 600 l 5,11,-1
 120 600 l 5,8,-1
EndSplineSet
EndChar

StartChar: R
Encoding: 82 82 20
Width: 460
VWidth: 90
Flags: W
LayerCount: 2
Fore
SplineSet
0 720 m 5,0,-1
 360 720 l 5,1,-1
 360 480 l 5,2,-1
 240 480 l 5,3,-1
 240 600 l 5,4,-1
 120 600 l 5,5,-1
 120 480 l 5,6,-1
 240 480 l 5,7,-1
 240 360 l 5,8,-1
 120 360 l 5,9,-1
 120 0 l 1,10,-1
 0 0 l 1,11,-1
 0 720 l 5,0,-1
240 360 m 5,12,-1
 360 360 l 5,13,-1
 360 0 l 1,14,-1
 240 0 l 1,15,-1
 240 360 l 5,12,-1
EndSplineSet
EndChar

StartChar: S
Encoding: 83 83 21
Width: 460
VWidth: 90
Flags: W
LayerCount: 2
Fore
SplineSet
0 720 m 5,0,-1
 360 720 l 5,1,-1
 360 600 l 5,2,-1
 120 600 l 5,3,-1
 120 480 l 5,4,-1
 360 480 l 5,5,-1
 360 0 l 1,6,-1
 0 0 l 1,7,-1
 0 120 l 1,8,-1
 240 120 l 1,9,-1
 240 360 l 5,10,-1
 0 360 l 5,11,-1
 0 720 l 5,0,-1
EndSplineSet
EndChar

StartChar: T
Encoding: 84 84 22
Width: 460
VWidth: 90
Flags: W
LayerCount: 2
Fore
SplineSet
0 720 m 1,0,-1
 360 720 l 1,1,-1
 360 600 l 1,2,-1
 240 600 l 1,3,-1
 240 0 l 1,4,-1
 120 0 l 1,5,-1
 120 600 l 1,6,-1
 0 600 l 1,7,-1
 0 720 l 1,0,-1
EndSplineSet
EndChar

StartChar: U
Encoding: 85 85 23
Width: 460
VWidth: 90
Flags: W
LayerCount: 2
Fore
SplineSet
0 720 m 5,0,-1
 120 720 l 5,1,-1
 120 120 l 1,2,-1
 240 120 l 1,3,-1
 240 720 l 5,4,-1
 360 720 l 5,5,-1
 360 0 l 1,6,-1
 0 0 l 1,7,-1
 0 720 l 5,0,-1
EndSplineSet
EndChar

StartChar: V
Encoding: 86 86 24
Width: 460
VWidth: 90
Flags: W
LayerCount: 2
Fore
SplineSet
0 720 m 5,0,-1
 120 720 l 5,1,-1
 120 240 l 1,2,-1
 240 240 l 1,3,-1
 240 720 l 5,4,-1
 360 720 l 5,5,-1
 360 120 l 1,6,-1
 240 120 l 1,7,-1
 240 0 l 1,8,-1
 120 0 l 1,9,-1
 120 120 l 1,10,-1
 0 120 l 1,11,-1
 0 720 l 5,0,-1
EndSplineSet
EndChar

StartChar: W
Encoding: 87 87 25
Width: 460
VWidth: 90
Flags: W
LayerCount: 2
Fore
SplineSet
0 720 m 5,0,-1
 120 720 l 5,1,-1
 120 240 l 1,2,-1
 240 240 l 1,3,-1
 240 720 l 5,4,-1
 360 720 l 5,5,-1
 360 0 l 1,6,-1
 240 0 l 1,7,-1
 240 120 l 1,8,-1
 120 120 l 1,9,-1
 120 0 l 1,10,-1
 0 0 l 1,11,-1
 0 720 l 5,0,-1
EndSplineSet
EndChar

StartChar: X
Encoding: 88 88 26
Width: 460
VWidth: 90
Flags: W
LayerCount: 2
Fore
SplineSet
0 720 m 5,0,-1
 120 720 l 5,1,-1
 120 480 l 5,2,-1
 240 480 l 5,3,-1
 240 720 l 5,4,-1
 360 720 l 5,5,-1
 360 480 l 5,6,-1
 240 480 l 5,7,-1
 240 360 l 5,8,-1
 360 360 l 5,9,-1
 360 0 l 1,10,-1
 240 0 l 1,11,-1
 240 360 l 5,12,-1
 120 360 l 5,13,-1
 120 0 l 1,14,-1
 0 0 l 1,15,-1
 0 360 l 5,16,-1
 120 360 l 5,17,-1
 120 480 l 5,18,-1
 0 480 l 5,19,-1
 0 720 l 5,0,-1
EndSplineSet
EndChar

StartChar: Y
Encoding: 89 89 27
Width: 460
VWidth: 90
Flags: W
LayerCount: 2
Fore
SplineSet
0 720 m 5,0,-1
 120 720 l 5,1,-1
 120 480 l 5,2,-1
 240 480 l 5,3,-1
 240 720 l 5,4,-1
 360 720 l 5,5,-1
 360 360 l 5,6,-1
 240 360 l 5,7,-1
 240 0 l 1,8,-1
 120 0 l 1,9,-1
 120 360 l 5,10,-1
 0 360 l 5,11,-1
 0 720 l 5,0,-1
EndSplineSet
EndChar

StartChar: Z
Encoding: 90 90 28
Width: 460
VWidth: 90
Flags: W
LayerCount: 2
Fore
SplineSet
0 729 m 5,0,-1
 360 729 l 5,1,-1
 360 480 l 5,2,-1
 240 480 l 5,3,-1
 240 360 l 5,4,-1
 120 360 l 5,5,-1
 120 128 l 1,6,-1
 360 128 l 1,7,-1
 360 0 l 1,8,-1
 0 0 l 1,9,-1
 0 360 l 5,10,-1
 120 360 l 5,11,-1
 120 480 l 5,12,-1
 240 480 l 5,13,-1
 240 600 l 5,14,-1
 0 600 l 5,15,-1
 0 729 l 5,0,-1
EndSplineSet
EndChar

StartChar: 0
Encoding: 48 48 29
Width: 460
VWidth: 90
Flags: W
LayerCount: 2
Fore
SplineSet
0 720 m 5,0,-1
 360 720 l 5,1,-1
 360 0 l 1,2,-1
 0 0 l 1,3,-1
 0 720 l 5,0,-1
120 600 m 5,4,-1
 120 120 l 1,5,-1
 240 120 l 1,6,-1
 240 600 l 5,7,-1
 120 600 l 5,4,-1
EndSplineSet
EndChar

StartChar: 1
Encoding: 49 49 30
Width: 460
VWidth: 90
Flags: W
LayerCount: 2
Fore
SplineSet
240 720 m 5,0,-1
 240 120 l 1,1,-1
 360 120 l 1,2,-1
 360 0 l 1,3,-1
 0 0 l 1,4,-1
 0 120 l 1,5,-1
 120 120 l 1,6,-1
 120 600 l 1,7,-1
 0 600 l 1,8,-1
 0 720 l 5,9,-1
 240 720 l 5,0,-1
EndSplineSet
EndChar

StartChar: 2
Encoding: 50 50 31
Width: 460
VWidth: 90
Flags: W
LayerCount: 2
Fore
SplineSet
360 720 m 5,0,-1
 0 720 l 5,1,-1
 0 600 l 5,2,-1
 240 600 l 5,3,-1
 240 480 l 5,4,-1
 0 480 l 5,5,-1
 0 0 l 5,6,-1
 360 0 l 5,7,-1
 360 120 l 5,8,-1
 120 120 l 5,9,-1
 120 360 l 5,10,-1
 360 360 l 5,11,-1
 360 720 l 5,0,-1
EndSplineSet
EndChar

StartChar: 3
Encoding: 51 51 32
Width: 460
VWidth: 90
Flags: W
LayerCount: 2
Fore
SplineSet
360 720 m 5,0,-1
 0 720 l 5,1,-1
 0 600 l 5,2,-1
 240 600 l 5,3,-1
 240 480 l 5,4,-1
 0 480 l 5,5,-1
 0 360 l 5,6,-1
 240 360 l 5,7,-1
 240 120 l 5,8,-1
 0 120 l 5,9,-1
 0 0 l 5,10,-1
 360 0 l 5,11,-1
 360 720 l 5,0,-1
EndSplineSet
EndChar

StartChar: 4
Encoding: 52 52 33
Width: 460
VWidth: 90
Flags: W
LayerCount: 2
Fore
SplineSet
0 720 m 5,0,-1
 120 720 l 1,1,-1
 120 480 l 1,2,-1
 240 480 l 1,3,-1
 240 720 l 1,4,-1
 360 720 l 1,5,-1
 360 0 l 1,6,-1
 240 0 l 1,7,-1
 240 360 l 1,8,-1
 0 360 l 5,9,-1
 0 720 l 5,0,-1
EndSplineSet
EndChar

StartChar: 5
Encoding: 53 53 34
Width: 460
VWidth: 90
Flags: W
LayerCount: 2
Fore
SplineSet
0 720 m 5,0,-1
 360 720 l 5,1,-1
 360 600 l 5,2,-1
 120 600 l 5,3,-1
 120 480 l 5,4,-1
 360 480 l 5,5,-1
 360 0 l 1,6,-1
 0 0 l 1,7,-1
 0 120 l 1,8,-1
 240 120 l 1,9,-1
 240 360 l 5,10,-1
 0 360 l 5,11,-1
 0 720 l 5,0,-1
EndSplineSet
EndChar

StartChar: 6
Encoding: 54 54 35
Width: 460
VWidth: 90
Flags: W
LayerCount: 2
Fore
SplineSet
0 1 m 5,0,-1
 360 1 l 5,1,-1
 360 361 l 5,2,-1
 120 361 l 5,3,-1
 120 721 l 5,4,-1
 0 721 l 5,5,-1
 0 1 l 5,0,-1
120 121 m 5,6,-1
 120 241 l 5,7,-1
 240 241 l 5,8,-1
 240 121 l 5,9,-1
 120 121 l 5,6,-1
EndSplineSet
EndChar

StartChar: 7
Encoding: 55 55 36
Width: 460
VWidth: 90
Flags: W
LayerCount: 2
Fore
SplineSet
360 0 m 1,0,-1
 240 0 l 1,1,-1
 240 600 l 1,2,-1
 0 600 l 1,3,-1
 0 720 l 1,4,-1
 360 720 l 1,5,-1
 360 0 l 1,0,-1
EndSplineSet
EndChar

StartChar: 8
Encoding: 56 56 37
Width: 460
VWidth: 90
Flags: W
LayerCount: 2
Fore
SplineSet
0 720 m 1,0,-1
 360 720 l 1,1,-1
 360 0 l 1,2,-1
 0 0 l 1,3,-1
 0 720 l 1,0,-1
120 591 m 1,4,-1
 120 471 l 1,5,-1
 240 471 l 1,6,-1
 240 591 l 1,7,-1
 120 591 l 1,4,-1
120 360 m 1,8,-1
 120 120 l 1,9,-1
 240 120 l 1,10,-1
 240 360 l 1,11,-1
 120 360 l 1,8,-1
EndSplineSet
EndChar

StartChar: 9
Encoding: 57 57 38
Width: 460
VWidth: 90
Flags: W
LayerCount: 2
Fore
SplineSet
360 720 m 5,0,-1
 0 720 l 5,1,-1
 0 360 l 5,2,-1
 240 360 l 5,3,-1
 240 0 l 5,4,-1
 360 0 l 5,5,-1
 360 720 l 5,0,-1
240 600 m 5,6,-1
 240 480 l 5,7,-1
 120 480 l 5,8,-1
 120 600 l 5,9,-1
 240 600 l 5,6,-1
EndSplineSet
EndChar

StartChar: -
Encoding: 45 45 39
Width: 460
VWidth: 90
Flags: W
LayerCount: 2
Fore
SplineSet
0 360 m 5,0,-1
 360 360 l 5,1,-1
 360 240 l 5,2,-1
 0 240 l 5,3,-1
 0 360 l 5,0,-1
EndSplineSet
EndChar

StartChar: :
Encoding: 58 58 40
Width: 460
VWidth: 90
Flags: W
LayerCount: 2
Fore
SplineSet
120 360 m 1,0,-1
 240 360 l 1,1,-1
 240 240 l 1,2,-1
 120 240 l 1,3,-1
 120 360 l 1,0,-1
120 120 m 1,4,-1
 240 120 l 1,5,-1
 240 0 l 1,6,-1
 120 0 l 1,7,-1
 120 120 l 1,4,-1
EndSplineSet
EndChar

StartChar: /
Encoding: 47 47 41
Width: 460
VWidth: 90
Flags: W
LayerCount: 2
Fore
SplineSet
240 600 m 1,0,-1
 120 600 l 1,1,-1
 120 120 l 1,2,-1
 0 120 l 1,3,-1
 0 1 l 1,4,-1
 120 1 l 1,5,-1
 120 120 l 1,6,-1
 240 120 l 1,7,-1
 240 600 l 1,8,-1
 360 600 l 1,9,-1
 360 720 l 1,10,-1
 240 720 l 1,11,-1
 240 600 l 1,0,-1
EndSplineSet
EndChar

StartChar: a
Encoding: 97 97 42
Width: 460
VWidth: 90
Flags: W
LayerCount: 2
Fore
SplineSet
0 600 m 1,0,-1
 360 600 l 1,1,-1
 360 0 l 1,2,-1
 240 0 l 1,3,-1
 240 240 l 1,4,-1
 120 240 l 1,5,-1
 120 0 l 1,6,-1
 0 0 l 1,7,-1
 0 600 l 1,0,-1
120 480 m 1,8,-1
 120 360 l 1,9,-1
 240 360 l 1,10,-1
 240 480 l 1,11,-1
 120 480 l 1,8,-1
EndSplineSet
EndChar

StartChar: b
Encoding: 98 98 43
Width: 460
VWidth: 90
Flags: W
LayerCount: 2
Fore
SplineSet
0 600 m 1,0,-1
 360 600 l 1,1,-1
 360 0 l 1,2,-1
 0 0 l 1,3,-1
 0 600 l 1,0,-1
120 471 m 1,4,-1
 120 351 l 1,5,-1
 240 351 l 1,6,-1
 240 471 l 1,7,-1
 120 471 l 1,4,-1
120 240 m 1,8,-1
 120 120 l 1,9,-1
 240 120 l 1,10,-1
 240 240 l 1,11,-1
 120 240 l 1,8,-1
EndSplineSet
EndChar

StartChar: c
Encoding: 99 99 44
Width: 460
VWidth: 90
Flags: W
LayerCount: 2
Fore
SplineSet
0 600 m 1,0,-1
 360 600 l 1,1,-1
 360 480 l 1,2,-1
 120 480 l 1,3,-1
 120 120 l 1,4,-1
 360 120 l 1,5,-1
 360 0 l 1,6,-1
 0 0 l 1,7,-1
 0 600 l 1,0,-1
EndSplineSet
EndChar

StartChar: d
Encoding: 100 100 45
Width: 460
VWidth: 90
Flags: W
LayerCount: 2
Fore
SplineSet
0 600 m 1,0,-1
 240 600 l 1,1,-1
 240 480 l 1,2,-1
 120 480 l 1,3,-1
 120 120 l 1,4,-1
 240 120 l 1,5,-1
 240 0 l 1,6,-1
 0 0 l 1,7,-1
 0 600 l 1,0,-1
240 480 m 1,8,-1
 360 480 l 1,9,-1
 360 120 l 1,10,-1
 240 120 l 1,11,-1
 240 480 l 1,8,-1
EndSplineSet
EndChar

StartChar: e
Encoding: 101 101 46
Width: 460
VWidth: 90
Flags: W
LayerCount: 2
Fore
SplineSet
0 600 m 1,0,-1
 360 600 l 1,1,-1
 360 480 l 1,2,-1
 120 480 l 1,3,-1
 120 360 l 1,4,-1
 360 360 l 1,5,-1
 360 240 l 1,6,-1
 120 240 l 1,7,-1
 120 120 l 1,8,-1
 360 120 l 1,9,-1
 360 0 l 1,10,-1
 0 0 l 1,11,-1
 0 600 l 1,0,-1
EndSplineSet
EndChar

StartChar: f
Encoding: 102 102 47
Width: 460
VWidth: 90
Flags: W
LayerCount: 2
Fore
SplineSet
0 600 m 1,0,-1
 360 600 l 1,1,-1
 360 480 l 1,2,-1
 120 480 l 1,3,-1
 120 360 l 1,4,-1
 360 360 l 1,5,-1
 360 240 l 1,6,-1
 120 240 l 1,7,-1
 120 0 l 1,8,-1
 0 0 l 1,9,-1
 0 600 l 1,0,-1
EndSplineSet
EndChar

StartChar: g
Encoding: 103 103 48
Width: 460
VWidth: 90
Flags: W
LayerCount: 2
Fore
SplineSet
0 600 m 1,0,-1
 360 600 l 1,1,-1
 360 480 l 1,2,-1
 120 480 l 1,3,-1
 120 120 l 1,4,-1
 240 120 l 1,5,-1
 240 360 l 1,6,-1
 360 360 l 1,7,-1
 360 0 l 1,8,-1
 0 0 l 1,9,-1
 0 600 l 1,0,-1
EndSplineSet
EndChar

StartChar: h
Encoding: 104 104 49
Width: 460
VWidth: 90
Flags: W
LayerCount: 2
Fore
SplineSet
0 600 m 1,0,-1
 120 600 l 1,1,-1
 120 360 l 1,2,-1
 240 360 l 1,3,-1
 240 600 l 1,4,-1
 360 600 l 1,5,-1
 360 0 l 1,6,-1
 240 0 l 1,7,-1
 240 240 l 1,8,-1
 120 240 l 1,9,-1
 120 0 l 1,10,-1
 0 0 l 1,11,-1
 0 600 l 1,0,-1
EndSplineSet
EndChar

StartChar: i
Encoding: 105 105 50
Width: 460
VWidth: 90
Flags: W
LayerCount: 2
Fore
SplineSet
0 600 m 1,0,-1
 360 600 l 1,1,-1
 360 480 l 1,2,-1
 240 480 l 1,3,-1
 240 120 l 1,4,-1
 360 120 l 1,5,-1
 360 0 l 1,6,-1
 0 0 l 1,7,-1
 0 120 l 1,8,-1
 120 120 l 1,9,-1
 120 480 l 1,10,-1
 0 480 l 1,11,-1
 0 600 l 1,0,-1
EndSplineSet
EndChar

StartChar: j
Encoding: 106 106 51
Width: 460
VWidth: 90
Flags: W
LayerCount: 2
Fore
SplineSet
0 360 m 1,0,-1
 120 360 l 1,1,-1
 120 120 l 1,2,-1
 240 120 l 1,3,-1
 240 600 l 1,4,-1
 360 600 l 1,5,-1
 360 0 l 1,6,-1
 0 0 l 1,7,-1
 0 360 l 1,0,-1
EndSplineSet
EndChar

StartChar: k
Encoding: 107 107 52
Width: 460
VWidth: 90
Flags: W
LayerCount: 2
Fore
SplineSet
0 600 m 1,0,-1
 120 600 l 1,1,-1
 120 480 l 1,2,-1
 240 480 l 1,3,-1
 240 600 l 1,4,-1
 360 600 l 1,5,-1
 360 480 l 1,6,-1
 240 480 l 1,7,-1
 240 240 l 1,8,-1
 360 240 l 1,9,-1
 360 0 l 1,10,-1
 240 0 l 1,11,-1
 240 240 l 1,12,-1
 120 240 l 1,13,-1
 120 0 l 1,14,-1
 0 0 l 1,15,-1
 0 600 l 1,0,-1
EndSplineSet
EndChar

StartChar: l
Encoding: 108 108 53
Width: 463
VWidth: 90
Flags: W
LayerCount: 2
Fore
SplineSet
0 600 m 1,0,-1
 120 600 l 5,1,-1
 120 120 l 1,2,-1
 360 120 l 1,3,-1
 360 0 l 1,4,-1
 0 0 l 1,5,-1
 0 600 l 1,0,-1
EndSplineSet
EndChar

StartChar: m
Encoding: 109 109 54
Width: 460
VWidth: 90
Flags: W
LayerCount: 2
Fore
SplineSet
0 600 m 1,0,-1
 120 600 l 1,1,-1
 120 480 l 1,2,-1
 240 480 l 1,3,-1
 240 600 l 1,4,-1
 360 600 l 1,5,-1
 360 0 l 1,6,-1
 240 0 l 1,7,-1
 240 360 l 1,8,-1
 120 360 l 1,9,-1
 120 0 l 1,10,-1
 0 0 l 1,11,-1
 0 600 l 1,0,-1
EndSplineSet
EndChar

StartChar: n
Encoding: 110 110 55
Width: 460
VWidth: 90
Flags: W
LayerCount: 2
Fore
SplineSet
0 600 m 1,0,-1
 360 600 l 1,1,-1
 360 0 l 1,2,-1
 240 0 l 1,3,-1
 240 480 l 1,4,-1
 120 480 l 1,5,-1
 120 0 l 1,6,-1
 0 0 l 1,7,-1
 0 600 l 1,0,-1
EndSplineSet
EndChar

StartChar: o
Encoding: 111 111 56
Width: 460
VWidth: 90
Flags: W
LayerCount: 2
Fore
SplineSet
0 600 m 1,0,-1
 360 600 l 1,1,-1
 360 0 l 1,2,-1
 0 0 l 1,3,-1
 0 600 l 1,0,-1
120 480 m 1,4,-1
 120 120 l 1,5,-1
 240 120 l 1,6,-1
 240 480 l 1,7,-1
 120 480 l 1,4,-1
EndSplineSet
EndChar

StartChar: p
Encoding: 112 112 57
Width: 460
VWidth: 90
Flags: W
LayerCount: 2
Fore
SplineSet
0 600 m 1,0,-1
 360 600 l 1,1,-1
 360 240 l 1,2,-1
 120 240 l 1,3,-1
 120 0 l 1,4,-1
 0 0 l 1,5,-1
 0 600 l 1,0,-1
120 480 m 1,6,-1
 120 360 l 1,7,-1
 240 360 l 1,8,-1
 240 480 l 1,9,-1
 120 480 l 1,6,-1
EndSplineSet
EndChar

StartChar: q
Encoding: 113 113 58
Width: 460
VWidth: 90
Flags: W
LayerCount: 2
Fore
SplineSet
0 600 m 1,0,-1
 360 600 l 1,1,-1
 360 120 l 1,2,-1
 240 120 l 1,3,-1
 240 0 l 1,4,-1
 120 0 l 1,5,-1
 120 120 l 1,6,-1
 0 120 l 1,7,-1
 0 600 l 1,0,-1
120 480 m 1,8,-1
 120 240 l 1,9,-1
 240 240 l 1,10,-1
 240 480 l 1,11,-1
 120 480 l 1,8,-1
EndSplineSet
EndChar

StartChar: r
Encoding: 114 114 59
Width: 460
VWidth: 90
Flags: W
LayerCount: 2
Fore
SplineSet
0 600 m 1,0,-1
 360 600 l 1,1,-1
 360 360 l 1,2,-1
 240 360 l 1,3,-1
 240 480 l 1,4,-1
 120 480 l 1,5,-1
 120 360 l 1,6,-1
 240 360 l 1,7,-1
 240 240 l 1,8,-1
 120 240 l 1,9,-1
 120 0 l 1,10,-1
 0 0 l 1,11,-1
 0 600 l 1,0,-1
240 240 m 1,12,-1
 360 240 l 1,13,-1
 360 0 l 1,14,-1
 240 0 l 1,15,-1
 240 240 l 1,12,-1
EndSplineSet
EndChar

StartChar: s
Encoding: 115 115 60
Width: 460
VWidth: 90
Flags: W
LayerCount: 2
Fore
SplineSet
0 600 m 1,0,-1
 360 600 l 1,1,-1
 360 480 l 1,2,-1
 120 480 l 1,3,-1
 120 360 l 1,4,-1
 360 360 l 1,5,-1
 360 0 l 1,6,-1
 0 0 l 1,7,-1
 0 120 l 1,8,-1
 240 120 l 1,9,-1
 240 240 l 1,10,-1
 0 240 l 1,11,-1
 0 600 l 1,0,-1
EndSplineSet
EndChar

StartChar: t
Encoding: 116 116 61
Width: 460
VWidth: 90
Flags: W
LayerCount: 2
Fore
SplineSet
0 600 m 1,0,-1
 360 600 l 1,1,-1
 360 480 l 1,2,-1
 240 480 l 1,3,-1
 240 0 l 1,4,-1
 120 0 l 1,5,-1
 120 480 l 1,6,-1
 0 480 l 1,7,-1
 0 600 l 1,0,-1
EndSplineSet
EndChar

StartChar: u
Encoding: 117 117 62
Width: 460
VWidth: 90
Flags: W
LayerCount: 2
Fore
SplineSet
0 600 m 1,0,-1
 120 600 l 1,1,-1
 120 120 l 1,2,-1
 240 120 l 1,3,-1
 240 600 l 1,4,-1
 360 600 l 1,5,-1
 360 0 l 1,6,-1
 0 0 l 1,7,-1
 0 600 l 1,0,-1
EndSplineSet
EndChar

StartChar: v
Encoding: 118 118 63
Width: 460
VWidth: 90
Flags: W
LayerCount: 2
Fore
SplineSet
0 600 m 1,0,-1
 120 600 l 1,1,-1
 120 240 l 1,2,-1
 240 240 l 1,3,-1
 240 600 l 1,4,-1
 360 600 l 1,5,-1
 360 120 l 1,6,-1
 240 120 l 1,7,-1
 240 0 l 1,8,-1
 120 0 l 1,9,-1
 120 120 l 1,10,-1
 0 120 l 1,11,-1
 0 600 l 1,0,-1
EndSplineSet
EndChar

StartChar: w
Encoding: 119 119 64
Width: 460
VWidth: 90
Flags: W
LayerCount: 2
Fore
SplineSet
0 600 m 1,0,-1
 120 600 l 1,1,-1
 120 240 l 1,2,-1
 240 240 l 1,3,-1
 240 600 l 1,4,-1
 360 600 l 1,5,-1
 360 0 l 1,6,-1
 240 0 l 1,7,-1
 240 120 l 1,8,-1
 120 120 l 1,9,-1
 120 0 l 1,10,-1
 0 0 l 1,11,-1
 0 600 l 1,0,-1
EndSplineSet
EndChar

StartChar: x
Encoding: 120 120 65
Width: 460
VWidth: 90
Flags: W
LayerCount: 2
Fore
SplineSet
0 600 m 1,0,-1
 120 600 l 1,1,-1
 120 360 l 1,2,-1
 240 360 l 1,3,-1
 240 600 l 1,4,-1
 360 600 l 1,5,-1
 360 360 l 1,6,-1
 240 360 l 1,7,-1
 240 240 l 1,8,-1
 360 240 l 1,9,-1
 360 0 l 1,10,-1
 240 0 l 1,11,-1
 240 240 l 1,12,-1
 120 240 l 1,13,-1
 120 0 l 1,14,-1
 0 0 l 1,15,-1
 0 240 l 1,16,-1
 120 240 l 1,17,-1
 120 360 l 1,18,-1
 0 360 l 1,19,-1
 0 600 l 1,0,-1
EndSplineSet
EndChar

StartChar: y
Encoding: 121 121 66
Width: 460
VWidth: 90
Flags: W
LayerCount: 2
Fore
SplineSet
0 600 m 1,0,-1
 120 600 l 1,1,-1
 120 360 l 1,2,-1
 240 360 l 1,3,-1
 240 600 l 1,4,-1
 360 600 l 1,5,-1
 360 240 l 1,6,-1
 240 240 l 1,7,-1
 240 0 l 1,8,-1
 120 0 l 1,9,-1
 120 240 l 1,10,-1
 0 240 l 1,11,-1
 0 600 l 1,0,-1
EndSplineSet
EndChar

StartChar: z
Encoding: 122 122 67
Width: 460
VWidth: 90
Flags: W
LayerCount: 2
Fore
SplineSet
0 600 m 1,0,-1
 360 600 l 1,1,-1
 360 351 l 1,2,-1
 240 351 l 1,3,-1
 240 231 l 1,4,-1
 120 231 l 1,5,-1
 120 128 l 1,6,-1
 360 128 l 1,7,-1
 360 0 l 1,8,-1
 0 0 l 1,9,-1
 0 231 l 1,10,-1
 120 231 l 1,11,-1
 120 351 l 1,12,-1
 240 351 l 1,13,-1
 240 471 l 1,14,-1
 0 471 l 1,15,-1
 0 600 l 1,0,-1
EndSplineSet
EndChar

StartChar: GreaterThan
Encoding: 62 62 68
Width: 460
VWidth: 90
Flags: WO
LayerCount: 2
Fore
SplineSet
120 240 m 5,0,-1
 240 240 l 5,1,-1
 240 360 l 5,2,-1
 120 360 l 5,3,-1
 120 480 l 5,4,-1
 0 480 l 5,5,-1
 0 600 l 5,6,-1
 120 600 l 5,7,-1
 120 480 l 5,8,-1
 240 480 l 5,9,-1
 240 360 l 5,10,-1
 360 360 l 5,11,-1
 360 240 l 5,12,-1
 240 240 l 5,13,-1
 240 120 l 5,14,-1
 120 120 l 5,15,-1
 120 0 l 5,16,-1
 0 0 l 5,17,-1
 0 120 l 5,18,-1
 120 120 l 5,19,-1
 120 240 l 5,0,-1
EndSplineSet
EndChar

StartChar: LessThan
Encoding: 60 60 69
Width: 460
VWidth: 90
Flags: W
LayerCount: 2
Fore
SplineSet
240 240 m 5,0,-1
 120 240 l 5,1,-1
 120 360 l 5,2,-1
 240 360 l 5,3,-1
 240 480 l 5,4,-1
 360 480 l 5,5,-1
 360 600 l 5,6,-1
 240 600 l 5,7,-1
 240 480 l 5,8,-1
 120 480 l 5,9,-1
 120 360 l 5,10,-1
 0 360 l 5,11,-1
 0 240 l 5,12,-1
 120 240 l 5,13,-1
 120 120 l 5,14,-1
 240 120 l 5,15,-1
 240 0 l 5,16,-1
 360 0 l 5,17,-1
 360 120 l 5,18,-1
 240 120 l 5,19,-1
 240 240 l 5,0,-1
EndSplineSet
EndChar

StartChar: Caret
Encoding: 94 94 70
Width: 460
VWidth: 90
Flags: W
LayerCount: 2
Fore
SplineSet
120 480 m 1,0,-1
 120 600 l 1,1,-1
 240 600 l 1,2,-1
 240 480 l 1,3,-1
 360 480 l 1,4,-1
 360 600 l 1,5,-1
 240 600 l 1,6,-1
 240 720 l 1,7,-1
 120 720 l 1,8,-1
 120 600 l 1,9,-1
 0 600 l 1,10,-1
 0 480 l 1,11,-1
 120 480 l 1,0,-1
EndSplineSet
EndChar

StartChar: ExclamationPoint
Encoding: 33 33 71
Width: 460
VWidth: 90
Flags: W
LayerCount: 2
Fore
SplineSet
240 120 m 1,0,-1
 240 0 l 1,1,-1
 120 0 l 1,2,-1
 120 120 l 1,3,-1
 240 120 l 1,0,-1
120 240 m 1,4,-1
 120 720 l 1,5,-1
 240 720 l 1,6,-1
 240 240 l 1,7,-1
 120 240 l 1,4,-1
EndSplineSet
EndChar

StartChar: PercentSign
Encoding: 37 37 72
Width: 460
VWidth: 90
Flags: WO
LayerCount: 2
Fore
SplineSet
0 600 m 1,0,-1
 120 600 l 1,1,-1
 120 480 l 1,2,-1
 0 480 l 1,3,-1
 0 600 l 1,0,-1
240 120 m 1,4,-1
 360 120 l 1,5,-1
 360 0 l 1,6,-1
 240 0 l 1,7,-1
 240 120 l 1,4,-1
240 480 m 5,8,-1
 360 480 l 1,9,-1
 360 360 l 1,10,-1
 240 360 l 1,11,-1
 240 240 l 1,12,-1
 120 240 l 1,13,-1
 120 120 l 1,14,-1
 0 120 l 1,15,-1
 0 240 l 1,16,-1
 120 240 l 1,17,-1
 120 360 l 1,18,-1
 240 360 l 1,19,-1
 240 480 l 5,20,-1
 240 480 l 5,8,-1
EndSplineSet
EndChar

StartChar: parenleft
Encoding: 40 40 73
Width: 460
VWidth: 90
Flags: WO
LayerCount: 2
Fore
SplineSet
240 120 m 5,0,-1
 120 120 l 5,1,-1
 120 600 l 5,2,-1
 240 600 l 5,3,-1
 240 720 l 5,4,-1
 360 720 l 5,5,-1
 360 600 l 5,6,-1
 240 600 l 5,7,-1
 240 120 l 5,8,-1
 360 120 l 5,9,-1
 360 0 l 5,10,-1
 240 0 l 5,11,-1
 240 120 l 5,0,-1
EndSplineSet
EndChar

StartChar: parenright
Encoding: 41 41 74
Width: 460
VWidth: 90
Flags: W
LayerCount: 2
Fore
SplineSet
120 120 m 5,0,-1
 240 120 l 5,1,-1
 240 600 l 5,2,-1
 120 600 l 5,3,-1
 120 720 l 5,4,-1
 0 720 l 5,5,-1
 0 600 l 5,6,-1
 120 600 l 5,7,-1
 120 120 l 5,8,-1
 0 120 l 5,9,-1
 0 0 l 5,10,-1
 120 0 l 5,11,-1
 120 120 l 5,0,-1
EndSplineSet
EndChar

StartChar: period
Encoding: 46 46 75
Width: 460
VWidth: 90
Flags: WO
LayerCount: 2
Fore
SplineSet
120 120 m 5,0,-1
 240 120 l 5,1,-1
 240 0 l 5,2,-1
 120 0 l 5,3,-1
 120 120 l 5,0,-1
EndSplineSet
EndChar

StartChar: comma
Encoding: 44 44 76
Width: 460
VWidth: 90
Flags: WO
LayerCount: 2
Fore
SplineSet
240 240 m 1,0,-1
 240 120 l 1,1,-1
 120 120 l 1,2,-1
 120 0 l 1,3,-1
 0 0 l 1,4,-1
 0 120 l 1,5,-1
 120 120 l 1,6,-1
 120 240 l 1,7,-1
 240 240 l 1,8,-1
 240 240 l 1,0,-1
EndSplineSet
EndChar

StartChar: semicolon
Encoding: 59 59 77
Width: 460
VWidth: 90
Flags: W
LayerCount: 2
Fore
SplineSet
120 480 m 1,0,-1
 240 480 l 1,1,-1
 240 360 l 1,2,-1
 120 360 l 1,3,-1
 120 480 l 1,0,-1
240 240 m 1,4,-1
 240 120 l 1,5,-1
 120 120 l 1,6,-1
 120 0 l 1,7,-1
 0 0 l 1,8,-1
 0 120 l 1,9,-1
 120 120 l 1,10,-1
 120 240 l 5,11,-1
 240 240 l 1,12,-1
 240 240 l 1,4,-1
EndSplineSet
EndChar

StartChar: underscore
Encoding: 95 95 78
Width: 460
VWidth: 90
Flags: W
LayerCount: 2
Fore
SplineSet
360 0 m 5,0,-1
 0 0 l 1,1,-1
 0 120 l 1,2,-1
 360 120 l 5,3,-1
 360 0 l 5,0,-1
EndSplineSet
EndChar

StartChar: equal
Encoding: 61 61 79
Width: 460
VWidth: 90
Flags: W
LayerCount: 2
Fore
SplineSet
0 480 m 5,0,-1
 360 480 l 5,1,-1
 360 360 l 5,2,-1
 0 360 l 5,3,-1
 0 480 l 5,0,-1
0 240 m 5,4,-1
 360 240 l 5,5,-1
 360 120 l 5,6,-1
 0 120 l 5,7,-1
 0 240 l 5,4,-1
EndSplineSet
EndChar

StartChar: plus
Encoding: 43 43 80
Width: 460
VWidth: 90
Flags: W
LayerCount: 2
Fore
SplineSet
0 360 m 1,0,-1
 120 360 l 1,1,-1
 120 480 l 1,2,-1
 240 480 l 1,3,-1
 240 360 l 1,4,-1
 360 360 l 1,5,-1
 360 240 l 1,6,-1
 240 240 l 1,7,-1
 240 120 l 1,8,-1
 120 120 l 1,9,-1
 120 240 l 1,10,-1
 0 240 l 1,11,-1
 0 360 l 1,0,-1
EndSplineSet
EndChar

StartChar: backslash
Encoding: 92 92 81
Width: 460
VWidth: 90
Flags: W
LayerCount: 2
Fore
SplineSet
240 120 m 5,0,-1
 120 120 l 5,1,-1
 120 600 l 5,2,-1
 0 600 l 5,3,-1
 0 719 l 5,4,-1
 120 719 l 5,5,-1
 120 600 l 5,6,-1
 240 600 l 5,7,-1
 240 120 l 5,8,-1
 360 120 l 5,9,-1
 360 0 l 5,10,-1
 240 0 l 5,11,-1
 240 120 l 5,0,-1
EndSplineSet
EndChar

StartChar: question
Encoding: 63 63 82
Width: 460
VWidth: 90
Flags: W
LayerCount: 2
Fore
SplineSet
120 120 m 1,0,-1
 240 120 l 1,1,-1
 240 0 l 1,2,-1
 120 0 l 1,3,-1
 120 120 l 1,0,-1
120 240 m 1,4,-1
 120 360 l 1,5,-1
 240 361 l 1,6,-1
 240 481 l 1,7,-1
 0 480 l 1,8,-1
 0 600 l 1,9,-1
 360 601 l 1,10,-1
 360 241 l 1,11,-1
 120 240 l 1,4,-1
EndSplineSet
EndChar

StartChar: quotesingle
Encoding: 39 39 83
Width: 460
VWidth: 90
Flags: W
LayerCount: 2
Fore
SplineSet
240 360 m 5,0,-1
 240 700 l 5,1,-1
 120 700 l 5,2,-1
 120 360 l 5,3,-1
 240 360 l 5,0,-1
EndSplineSet
EndChar

StartChar: quotedbl
Encoding: 34 34 84
Width: 460
VWidth: 90
Flags: W
LayerCount: 2
Fore
SplineSet
360 360 m 5,0,-1
 360 700 l 1,1,-1
 240 700 l 1,2,-1
 240 360 l 5,3,-1
 360 360 l 5,0,-1
120 360 m 5,4,-1
 120 700 l 1,5,-1
 0 700 l 1,6,-1
 0 360 l 5,7,-1
 120 360 l 5,4,-1
EndSplineSet
EndChar

StartChar: asterisk
Encoding: 42 42 85
Width: 460
VWidth: 90
Flags: WO
LayerCount: 2
Fore
SplineSet
0 600 m 1,0,-1
 120 600 l 1,1,-1
 120 480 l 1,2,-1
 240 480 l 1,3,-1
 240 600 l 1,4,-1
 360 600 l 1,5,-1
 360 480 l 1,6,-1
 240 480 l 1,7,-1
 240 360 l 1,8,-1
 360 360 l 1,9,-1
 360 240 l 1,10,-1
 240 240 l 1,11,-1
 240 360 l 1,12,-1
 120 360 l 1,13,-1
 120 240 l 1,14,-1
 0 240 l 1,15,-1
 0 360 l 1,16,-1
 120 360 l 1,17,-1
 120 480 l 1,18,-1
 0 480 l 1,19,-1
 0 600 l 1,0,-1
EndSplineSet
EndChar

StartChar: ampersand
Encoding: 38 38 86
Width: 460
VWidth: 90
Flags: W
LayerCount: 2
Fore
SplineSet
0 360 m 1,0,-1
 120 360 l 1,1,-1
 120 480 l 1,2,-1
 240 480 l 1,3,-1
 240 360 l 1,4,-1
 360 360 l 1,5,-1
 360 240 l 1,6,-1
 240 240 l 1,7,-1
 240 120 l 1,8,-1
 120 120 l 1,9,-1
 120 240 l 1,10,-1
 0 240 l 1,11,-1
 0 360 l 1,0,-1
EndSplineSet
EndChar

StartChar: bar
Encoding: 124 124 87
Width: 460
VWidth: 90
Flags: W
LayerCount: 2
Fore
SplineSet
240 720 m 1,0,-1
 240 0 l 1,1,-1
 120 0 l 1,2,-1
 120 720 l 1,3,-1
 240 720 l 1,0,-1
EndSplineSet
EndChar

StartChar: bracketleft
Encoding: 91 91 88
Width: 460
VWidth: 90
Flags: W
LayerCount: 2
Fore
SplineSet
120 0 m 5,0,-1
 120 720 l 1,1,-1
 360 720 l 1,2,-1
 360 600 l 1,3,-1
 240 600 l 1,4,-1
 240 120 l 1,5,-1
 360 120 l 1,6,-1
 360 0 l 5,7,-1
 120 0 l 5,0,-1
EndSplineSet
EndChar

StartChar: bracketright
Encoding: 93 93 89
Width: 460
VWidth: 90
Flags: W
LayerCount: 2
Fore
SplineSet
240 0 m 5,0,-1
 240 720 l 5,1,-1
 0 720 l 5,2,-1
 0 600 l 5,3,-1
 120 600 l 5,4,-1
 120 120 l 5,5,-1
 0 120 l 5,6,-1
 0 0 l 5,7,-1
 240 0 l 5,0,-1
EndSplineSet
EndChar

StartChar: braceleft
Encoding: 123 123 90
Width: 460
VWidth: 90
Flags: W
LayerCount: 2
Fore
SplineSet
120 0 m 1,0,-1
 120 360 l 1,1,-1
 0 360 l 1,2,-1
 0 480 l 1,3,-1
 120 480 l 1,4,-1
 120 720 l 1,5,-1
 360 720 l 1,6,-1
 360 600 l 1,7,-1
 240 600 l 1,8,-1
 240 120 l 1,9,-1
 360 120 l 1,10,-1
 360 0 l 1,11,-1
 120 0 l 1,0,-1
EndSplineSet
EndChar

StartChar: braceright
Encoding: 125 125 91
Width: 460
VWidth: 90
Flags: W
LayerCount: 2
Fore
SplineSet
240 0 m 1,0,-1
 240 360 l 1,1,-1
 360 360 l 1,2,-1
 360 480 l 1,3,-1
 240 480 l 1,4,-1
 240 720 l 1,5,-1
 0 720 l 1,6,-1
 0 600 l 1,7,-1
 120 600 l 1,8,-1
 120 120 l 1,9,-1
 0 120 l 1,10,-1
 0 0 l 1,11,-1
 240 0 l 1,0,-1
EndSplineSet
EndChar

StartChar: at
Encoding: 64 64 92
Width: 460
VWidth: 90
Flags: W
LayerCount: 2
Fore
SplineSet
0 600 m 1,0,-1
 0 720 l 1,1,-1
 360 720 l 1,2,-1
 360 0 l 1,3,-1
 0 0 l 1,4,-1
 0 480 l 1,5,-1
 240 480 l 5,6,-1
 240 600 l 1,7,-1
 0 600 l 1,0,-1
120 360 m 1,8,-1
 120 120 l 1,9,-1
 240 120 l 1,10,-1
 240 360 l 1,11,-1
 120 360 l 1,8,-1
EndSplineSet
EndChar

StartChar: numbersign
Encoding: 35 35 93
Width: 460
VWidth: 90
Flags: W
LayerCount: 2
Fore
SplineSet
0 65 m 5,0,-1
 120 65 l 5,1,-1
 120 185 l 5,2,-1
 240 185 l 5,3,-1
 240 65 l 5,4,-1
 360 65 l 5,5,-1
 360 785 l 5,6,-1
 240 785 l 5,7,-1
 240 600 l 5,8,-1
 240 480 l 5,9,-1
 240 305 l 5,10,-1
 120 305 l 5,11,-1
 120 480 l 5,12,-1
 120 600 l 5,13,-1
 120 785 l 5,14,-1
 0 785 l 5,15,-1
 0 65 l 5,0,-1
0 785 m 5,16,-1
 120 785 l 5,17,-1
 120 665 l 5,18,-1
 240 665 l 5,19,-1
 240 785 l 5,20,-1
 360 785 l 5,21,-1
 360 65 l 5,22,-1
 240 65 l 5,23,-1
 240 120 l 5,24,-1
 240 240 l 5,25,-1
 240 545 l 5,26,-1
 120 545 l 5,27,-1
 120 240 l 5,28,-1
 120 120 l 5,29,-1
 120 65 l 5,30,-1
 0 65 l 5,31,-1
 0 785 l 5,16,-1
EndSplineSet
EndChar

StartChar: missing
Encoding: 128 0 95
Width: 460
VWidth: 90
Flags: WO
LayerCount: 2
Fore
SplineSet
360 0 m 1,0,-1
 0 0 l 1,1,-1
 0 720 l 1,2,-1
 360 720 l 1,3,-1
 360 0 l 1,0,-1
EndSplineSet
EndChar
